<svg width="74" height="77" viewBox="0 0 74 77" fill="none" xmlns="http://www.w3.org/2000/svg">
<path d="M34.94 25.41C35.4067 25.41 35.7333 25.41 35.92 25.41C36.1067 25.41 36.2933 25.2467 36.48 24.92C36.7133 24.5467 36.9933 23.9633 37.32 23.17C37.6933 22.33 38.2767 21.07 39.07 19.39C39.3967 18.7367 39.7233 18.41 40.05 18.41C40.3767 18.41 40.54 18.5967 40.54 18.97C40.54 19.1567 40.4467 19.4833 40.26 19.95C40.0733 20.4167 39.84 20.9533 39.56 21.56C39.3267 22.12 39.0467 22.75 38.72 23.45C38.44 24.1033 38.1833 24.7333 37.95 25.34C37.95 25.34 38.37 25.34 39.21 25.34C40.0967 25.34 41.0767 25.34 42.15 25.34C43.2233 25.2933 44.2733 25.27 45.3 25.27C46.3733 25.27 47.12 25.27 47.54 25.27C47.8667 24.4767 48.24 23.59 48.66 22.61C49.1267 21.5833 49.5933 20.6267 50.06 19.74C50.5267 18.8067 50.9467 18.0367 51.32 17.43C51.74 16.7767 52.09 16.45 52.37 16.45C52.4633 16.45 52.58 16.4967 52.72 16.59C52.9067 16.6367 53 16.7767 53 17.01C53 17.29 52.8367 17.78 52.51 18.48C52.23 19.1333 51.88 19.88 51.46 20.72C51.0867 21.56 50.69 22.4 50.27 23.24C49.85 24.08 49.5 24.7567 49.22 25.27L62.94 25.06C63.64 25.06 63.9667 25.2933 63.92 25.76C63.92 26.2267 63.6633 26.46 63.15 26.46C62.73 26.3667 61.7967 26.2733 60.35 26.18C58.95 26.0867 57.4333 26.0167 55.8 25.97C54.2133 25.9233 52.7433 25.9 51.39 25.9C50.0367 25.9 49.1967 25.9 48.87 25.9C47.9367 27.7667 47.05 29.7033 46.21 31.71C45.37 33.7167 44.6233 35.56 43.97 37.24C43.3633 38.92 42.8733 40.32 42.5 41.44C42.1267 42.5133 41.94 43.0967 41.94 43.19C41.94 43.33 42.22 42.9567 42.78 42.07C43.3867 41.1833 44.0867 40.18 44.88 39.06C45.72 37.94 46.5833 36.9133 47.47 35.98C48.3567 35 49.1033 34.51 49.71 34.51C50.3167 34.51 50.7367 34.8367 50.97 35.49C51.25 36.0967 51.5533 36.7967 51.88 37.59C52.2067 38.3367 52.65 39.0367 53.21 39.69C53.8167 40.3433 54.75 40.67 56.01 40.67C56.99 40.67 57.8067 40.5067 58.46 40.18C59.16 39.8067 59.79 39.3867 60.35 38.92C60.91 38.4533 61.4467 37.9633 61.96 37.45C62.4733 36.89 63.08 36.4467 63.78 36.12C64.1533 35.9333 64.5033 35.7933 64.83 35.7C65.1567 35.6067 65.3667 35.56 65.46 35.56C65.74 35.56 65.88 35.7 65.88 35.98C65.9267 36.2133 65.8333 36.4467 65.6 36.68C64.76 37.52 64.06 38.08 63.5 38.36C62.9867 38.5933 62.5667 38.7567 62.24 38.85C61.9133 38.9433 61.68 39.0367 61.54 39.13C61.4 39.2233 61.33 39.5033 61.33 39.97C61.33 40.2967 61.4933 40.5533 61.82 40.74C62.1467 40.88 62.4267 40.95 62.66 40.95C63.4533 40.95 64.3167 40.81 65.25 40.53C66.23 40.2033 67.1867 39.8067 68.12 39.34C69.0533 38.8267 69.9633 38.29 70.85 37.73C71.7367 37.17 72.53 36.61 73.23 36.05C73.37 35.91 73.4867 35.84 73.58 35.84C73.72 35.84 73.79 35.91 73.79 36.05C73.79 36.2833 73.37 36.7267 72.53 37.38C71.69 37.9867 70.6633 38.6167 69.45 39.27C68.2833 39.9233 67.0933 40.5067 65.88 41.02C64.6667 41.5333 63.6633 41.79 62.87 41.79C62.17 41.79 61.6333 41.6733 61.26 41.44C60.9333 41.16 60.6533 40.6233 60.42 39.83C59.9533 40.11 59.3233 40.46 58.53 40.88C57.7833 41.3 56.8967 41.51 55.87 41.51C54.9833 41.51 54.1667 41.3233 53.42 40.95C52.72 40.5767 52.1133 39.9933 51.6 39.2C51.04 38.2667 50.6433 37.4033 50.41 36.61C50.2233 35.8167 49.9433 35.42 49.57 35.42C49.3833 35.42 49.1267 35.56 48.8 35.84C48.52 36.12 48.1933 36.4467 47.82 36.82C47.4933 37.1933 47.19 37.5433 46.91 37.87C46.63 38.1967 46.4433 38.43 46.35 38.57C45.37 39.69 44.5533 40.7867 43.9 41.86C43.2467 42.9333 42.6867 43.89 42.22 44.73C41.8 45.57 41.45 46.2467 41.17 46.76C40.89 47.2267 40.6333 47.46 40.4 47.46C40.3067 47.46 40.1667 47.4133 39.98 47.32C39.84 47.2267 39.77 47.0633 39.77 46.83C39.77 46.5033 39.9567 45.7333 40.33 44.52C40.75 43.3067 41.1933 42 41.66 40.6C42.1733 39.2 42.64 37.87 43.06 36.61C43.5267 35.35 43.8533 34.4867 44.04 34.02C43.62 34.6267 42.92 35.6533 41.94 37.1C40.96 38.5 39.8867 39.9233 38.72 41.37C37.6 42.77 36.48 44.03 35.36 45.15C34.24 46.2233 33.3067 46.76 32.56 46.76C31.7667 46.76 31.2767 46.4333 31.09 45.78C30.9033 45.08 30.81 44.3567 30.81 43.61C30.81 42.5833 31.02 41.3 31.44 39.76C31.8133 38.1733 32.28 36.54 32.84 34.86C33.4 33.18 33.9833 31.5467 34.59 29.96C35.1967 28.3733 35.6867 27.09 36.06 26.11C34.24 26.25 32.8633 26.39 31.93 26.53C31.4167 26.6233 30.9733 26.7167 30.6 26.81C30.0867 26.81 29.83 26.5767 29.83 26.11C29.83 25.69 30.1333 25.48 30.74 25.48C31.3 25.4333 32.7 25.41 34.94 25.41ZM32.7 45.71C33.0733 45.71 33.6333 45.36 34.38 44.66C35.1733 43.96 36.06 43.05 37.04 41.93C38.02 40.7633 39.0467 39.48 40.12 38.08C41.24 36.6333 42.2667 35.1867 43.2 33.74C44.18 32.2467 45.0433 30.8233 45.79 29.47C46.5367 28.07 47.0733 26.88 47.4 25.9C46.6067 25.9 45.7667 25.9233 44.88 25.97C44.04 25.97 43.2233 25.97 42.43 25.97C41.8233 25.97 41.24 25.97 40.68 25.97C40.12 25.97 39.6067 25.9467 39.14 25.9C38.6267 25.9 38.1367 25.9 37.67 25.9C37.53 26.18 37.1333 27.0667 36.48 28.56C35.8733 30.0067 35.22 31.6633 34.52 33.53C33.8667 35.35 33.26 37.1933 32.7 39.06C32.14 40.9267 31.86 42.42 31.86 43.54C31.86 44.1467 31.9067 44.66 32 45.08C32.0467 45.5 32.28 45.71 32.7 45.71ZM64.83 36.47C63.7567 36.9367 63.1033 37.31 62.87 37.59C62.6833 37.87 62.5667 38.0567 62.52 38.15C63.0333 38.0567 63.4533 37.8467 63.78 37.52C64.1533 37.1933 64.5033 36.8433 64.83 36.47Z" fill="#945030"/>
<path d="M34.9639 28.5546C35.0876 28.4373 35.2169 28.3713 35.3517 28.3566C35.481 28.2906 35.627 28.3785 35.7898 28.6205C35.8234 28.9284 35.4523 29.2804 34.6767 29.6765C33.8955 30.0212 33.0468 30.3733 32.1307 30.7327C31.209 31.0408 30.2171 31.3306 29.155 31.6021C28.2277 31.8588 27.5618 32.0093 27.1572 32.0533C25.9491 32.2368 24.7916 32.259 23.6847 32.1198C22.5779 31.9807 21.4008 31.8232 20.1535 31.6474C19.0411 31.457 17.7966 31.3068 16.4201 31.1971C15.1784 31.0726 13.7511 31.1241 12.1384 31.3517C9.72205 31.7187 7.99679 32.1662 6.9626 32.6943C5.92842 33.2224 4.88865 33.6991 3.84329 34.1246C3.44988 34.2713 2.99184 34.451 2.46916 34.6637C1.94089 34.8251 1.51954 34.7152 1.2051 34.3339C1.17716 34.0773 1.48637 33.784 2.13273 33.4539C2.77351 33.0725 3.55473 32.7278 4.47641 32.4197C5.53295 32.0969 6.59228 31.7998 7.65441 31.5284C8.8514 31.2422 9.91911 31.0221 10.8576 30.868C13.139 30.5157 15.0355 30.3871 16.5469 30.4821C18.0583 30.5772 19.3702 30.72 20.4827 30.9105C21.5951 31.101 22.6373 31.2731 23.6093 31.4269C24.7161 31.5661 25.9411 31.5366 27.2841 31.3384C28.4922 31.1549 30.0124 30.7037 31.8446 29.9849C33.6768 29.266 34.7165 28.7893 34.9639 28.5546Z" fill="#945030"/>
</svg>
